<mxfile host="app.diagrams.net" modified="2024-01-05T19:42:03.514Z" agent="Mozilla/5.0 (Windows NT 10.0; Win64; x64) AppleWebKit/537.36 (KHTML, like Gecko) Chrome/120.0.0.0 Safari/537.36" etag="arNTWnNAbXtyf9W9H_mu" version="22.1.16" type="device">
  <diagram id="C5RBs43oDa-KdzZeNtuy" name="Page-1">
    <mxGraphModel dx="1594" dy="760" grid="0" gridSize="10" guides="1" tooltips="1" connect="1" arrows="1" fold="1" page="0" pageScale="1" pageWidth="827" pageHeight="1169" background="#000000" math="0" shadow="0">
      <root>
        <mxCell id="WIyWlLk6GJQsqaUBKTNV-0" />
        <mxCell id="WIyWlLk6GJQsqaUBKTNV-1" parent="WIyWlLk6GJQsqaUBKTNV-0" />
        <mxCell id="CfD4FoiF6nNvBr-aVgtz-0" value="User" style="swimlane;fontStyle=0;childLayout=stackLayout;horizontal=1;startSize=26;fillColor=none;horizontalStack=0;resizeParent=1;resizeParentMax=0;resizeLast=0;collapsible=1;marginBottom=0;strokeColor=#FFFFFF;fontColor=#FFFFFF;" parent="WIyWlLk6GJQsqaUBKTNV-1" vertex="1">
          <mxGeometry x="10" y="40" width="230" height="156" as="geometry" />
        </mxCell>
        <mxCell id="CfD4FoiF6nNvBr-aVgtz-1" value="+ id: INT, Primary Key, Autoincrement" style="text;strokeColor=#FFFFFF;fillColor=none;align=left;verticalAlign=top;spacingLeft=4;spacingRight=4;overflow=hidden;rotatable=0;points=[[0,0.5],[1,0.5]];portConstraint=eastwest;fontColor=#FFFFFF;" parent="CfD4FoiF6nNvBr-aVgtz-0" vertex="1">
          <mxGeometry y="26" width="230" height="26" as="geometry" />
        </mxCell>
        <mxCell id="CfD4FoiF6nNvBr-aVgtz-2" value="+ login: VARCHAR(250), Unique, Not null" style="text;strokeColor=#FFFFFF;fillColor=none;align=left;verticalAlign=top;spacingLeft=4;spacingRight=4;overflow=hidden;rotatable=0;points=[[0,0.5],[1,0.5]];portConstraint=eastwest;fontColor=#FFFFFF;" parent="CfD4FoiF6nNvBr-aVgtz-0" vertex="1">
          <mxGeometry y="52" width="230" height="26" as="geometry" />
        </mxCell>
        <mxCell id="CfD4FoiF6nNvBr-aVgtz-3" value="+ password: VARCHAR(), Not null" style="text;strokeColor=#FFFFFF;fillColor=none;align=left;verticalAlign=top;spacingLeft=4;spacingRight=4;overflow=hidden;rotatable=0;points=[[0,0.5],[1,0.5]];portConstraint=eastwest;fontColor=#FFFFFF;" parent="CfD4FoiF6nNvBr-aVgtz-0" vertex="1">
          <mxGeometry y="78" width="230" height="26" as="geometry" />
        </mxCell>
        <mxCell id="CfD4FoiF6nNvBr-aVgtz-24" value="+ role: CHAR(1), Not null" style="text;strokeColor=#FFFFFF;fillColor=none;align=left;verticalAlign=top;spacingLeft=4;spacingRight=4;overflow=hidden;rotatable=0;points=[[0,0.5],[1,0.5]];portConstraint=eastwest;fontColor=#FFFFFF;" parent="CfD4FoiF6nNvBr-aVgtz-0" vertex="1">
          <mxGeometry y="104" width="230" height="26" as="geometry" />
        </mxCell>
        <mxCell id="CfD4FoiF6nNvBr-aVgtz-25" value="+ create_date: DATETIME, Not null" style="text;strokeColor=#FFFFFF;fillColor=none;align=left;verticalAlign=top;spacingLeft=4;spacingRight=4;overflow=hidden;rotatable=0;points=[[0,0.5],[1,0.5]];portConstraint=eastwest;fontSize=12;fontColor=#FFFFFF;" parent="CfD4FoiF6nNvBr-aVgtz-0" vertex="1">
          <mxGeometry y="130" width="230" height="26" as="geometry" />
        </mxCell>
        <mxCell id="CfD4FoiF6nNvBr-aVgtz-4" value="Group" style="swimlane;fontStyle=0;childLayout=stackLayout;horizontal=1;startSize=26;fillColor=none;horizontalStack=0;resizeParent=1;resizeParentMax=0;resizeLast=0;collapsible=1;marginBottom=0;strokeColor=#FFFFFF;fontColor=#FFFFFF;" parent="WIyWlLk6GJQsqaUBKTNV-1" vertex="1">
          <mxGeometry x="10" y="380" width="230" height="156" as="geometry" />
        </mxCell>
        <mxCell id="CfD4FoiF6nNvBr-aVgtz-5" value="+ id: INT, Primary Key, Autoincrement" style="text;strokeColor=#FFFFFF;fillColor=none;align=left;verticalAlign=top;spacingLeft=4;spacingRight=4;overflow=hidden;rotatable=0;points=[[0,0.5],[1,0.5]];portConstraint=eastwest;fontColor=#FFFFFF;" parent="CfD4FoiF6nNvBr-aVgtz-4" vertex="1">
          <mxGeometry y="26" width="230" height="26" as="geometry" />
        </mxCell>
        <mxCell id="CfD4FoiF6nNvBr-aVgtz-6" value="+ name: VARCHAR(150), Not null" style="text;strokeColor=#FFFFFF;fillColor=none;align=left;verticalAlign=top;spacingLeft=4;spacingRight=4;overflow=hidden;rotatable=0;points=[[0,0.5],[1,0.5]];portConstraint=eastwest;fontColor=#FFFFFF;" parent="CfD4FoiF6nNvBr-aVgtz-4" vertex="1">
          <mxGeometry y="52" width="230" height="26" as="geometry" />
        </mxCell>
        <mxCell id="CfD4FoiF6nNvBr-aVgtz-7" value="+ cource: CHAR(1), Not null" style="text;strokeColor=#FFFFFF;fillColor=none;align=left;verticalAlign=top;spacingLeft=4;spacingRight=4;overflow=hidden;rotatable=0;points=[[0,0.5],[1,0.5]];portConstraint=eastwest;fontColor=#FFFFFF;" parent="CfD4FoiF6nNvBr-aVgtz-4" vertex="1">
          <mxGeometry y="78" width="230" height="26" as="geometry" />
        </mxCell>
        <mxCell id="CfD4FoiF6nNvBr-aVgtz-26" value="+ year_study: VARCHAR(4), Not null" style="text;strokeColor=#FFFFFF;fillColor=none;align=left;verticalAlign=top;spacingLeft=4;spacingRight=4;overflow=hidden;rotatable=0;points=[[0,0.5],[1,0.5]];portConstraint=eastwest;fontColor=#FFFFFF;" parent="CfD4FoiF6nNvBr-aVgtz-4" vertex="1">
          <mxGeometry y="104" width="230" height="26" as="geometry" />
        </mxCell>
        <mxCell id="CfD4FoiF6nNvBr-aVgtz-27" value="+ create_date: DATETIME, Not null" style="text;strokeColor=#FFFFFF;fillColor=none;align=left;verticalAlign=top;spacingLeft=4;spacingRight=4;overflow=hidden;rotatable=0;points=[[0,0.5],[1,0.5]];portConstraint=eastwest;fontColor=#FFFFFF;" parent="CfD4FoiF6nNvBr-aVgtz-4" vertex="1">
          <mxGeometry y="130" width="230" height="26" as="geometry" />
        </mxCell>
        <mxCell id="CfD4FoiF6nNvBr-aVgtz-8" value="Quest" style="swimlane;fontStyle=0;childLayout=stackLayout;horizontal=1;startSize=26;fillColor=none;horizontalStack=0;resizeParent=1;resizeParentMax=0;resizeLast=0;collapsible=1;marginBottom=0;strokeColor=#FFFFFF;fontColor=#FFFFFF;" parent="WIyWlLk6GJQsqaUBKTNV-1" vertex="1">
          <mxGeometry x="520" y="40" width="250" height="182" as="geometry" />
        </mxCell>
        <mxCell id="CfD4FoiF6nNvBr-aVgtz-9" value="+ id: INT, Primary Key, Autoincrement" style="text;strokeColor=#FFFFFF;fillColor=none;align=left;verticalAlign=top;spacingLeft=4;spacingRight=4;overflow=hidden;rotatable=0;points=[[0,0.5],[1,0.5]];portConstraint=eastwest;fontColor=#FFFFFF;" parent="CfD4FoiF6nNvBr-aVgtz-8" vertex="1">
          <mxGeometry y="26" width="250" height="26" as="geometry" />
        </mxCell>
        <mxCell id="CfD4FoiF6nNvBr-aVgtz-10" value="+ question: VARCHAR(), Not null" style="text;strokeColor=#FFFFFF;fillColor=none;align=left;verticalAlign=top;spacingLeft=4;spacingRight=4;overflow=hidden;rotatable=0;points=[[0,0.5],[1,0.5]];portConstraint=eastwest;fontColor=#FFFFFF;" parent="CfD4FoiF6nNvBr-aVgtz-8" vertex="1">
          <mxGeometry y="52" width="250" height="26" as="geometry" />
        </mxCell>
        <mxCell id="CfD4FoiF6nNvBr-aVgtz-11" value="+ count_responses: CHAR(1), Not null" style="text;strokeColor=#FFFFFF;fillColor=none;align=left;verticalAlign=top;spacingLeft=4;spacingRight=4;overflow=hidden;rotatable=0;points=[[0,0.5],[1,0.5]];portConstraint=eastwest;fontColor=#FFFFFF;" parent="CfD4FoiF6nNvBr-aVgtz-8" vertex="1">
          <mxGeometry y="78" width="250" height="26" as="geometry" />
        </mxCell>
        <mxCell id="CfD4FoiF6nNvBr-aVgtz-36" value="+ id_test: Foreign Key" style="text;strokeColor=#FFFFFF;fillColor=none;align=left;verticalAlign=top;spacingLeft=4;spacingRight=4;overflow=hidden;rotatable=0;points=[[0,0.5],[1,0.5]];portConstraint=eastwest;fontColor=#FFFFFF;" parent="CfD4FoiF6nNvBr-aVgtz-8" vertex="1">
          <mxGeometry y="104" width="250" height="26" as="geometry" />
        </mxCell>
        <mxCell id="CfD4FoiF6nNvBr-aVgtz-37" value="+ create_date: DATETIME, Not null" style="text;strokeColor=#FFFFFF;fillColor=none;align=left;verticalAlign=top;spacingLeft=4;spacingRight=4;overflow=hidden;rotatable=0;points=[[0,0.5],[1,0.5]];portConstraint=eastwest;fontColor=#FFFFFF;" parent="CfD4FoiF6nNvBr-aVgtz-8" vertex="1">
          <mxGeometry y="130" width="250" height="26" as="geometry" />
        </mxCell>
        <mxCell id="CfD4FoiF6nNvBr-aVgtz-38" value="+ update_date: DATETIME, Not null" style="text;strokeColor=#FFFFFF;fillColor=none;align=left;verticalAlign=top;spacingLeft=4;spacingRight=4;overflow=hidden;rotatable=0;points=[[0,0.5],[1,0.5]];portConstraint=eastwest;fontColor=#FFFFFF;" parent="CfD4FoiF6nNvBr-aVgtz-8" vertex="1">
          <mxGeometry y="156" width="250" height="26" as="geometry" />
        </mxCell>
        <mxCell id="CfD4FoiF6nNvBr-aVgtz-12" value="Response" style="swimlane;fontStyle=0;childLayout=stackLayout;horizontal=1;startSize=26;fillColor=none;horizontalStack=0;resizeParent=1;resizeParentMax=0;resizeLast=0;collapsible=1;marginBottom=0;strokeColor=#FFFFFF;fontColor=#FFFFFF;" parent="WIyWlLk6GJQsqaUBKTNV-1" vertex="1">
          <mxGeometry x="520" y="246" width="250" height="182" as="geometry" />
        </mxCell>
        <mxCell id="CfD4FoiF6nNvBr-aVgtz-13" value="+ id: INT, Primary Key, Autoincrement" style="text;strokeColor=#FFFFFF;fillColor=none;align=left;verticalAlign=top;spacingLeft=4;spacingRight=4;overflow=hidden;rotatable=0;points=[[0,0.5],[1,0.5]];portConstraint=eastwest;fontColor=#FFFFFF;" parent="CfD4FoiF6nNvBr-aVgtz-12" vertex="1">
          <mxGeometry y="26" width="250" height="26" as="geometry" />
        </mxCell>
        <mxCell id="CfD4FoiF6nNvBr-aVgtz-14" value="+ response: VARCHAR(), Not null" style="text;strokeColor=#FFFFFF;fillColor=none;align=left;verticalAlign=top;spacingLeft=4;spacingRight=4;overflow=hidden;rotatable=0;points=[[0,0.5],[1,0.5]];portConstraint=eastwest;fontColor=#FFFFFF;" parent="CfD4FoiF6nNvBr-aVgtz-12" vertex="1">
          <mxGeometry y="52" width="250" height="26" as="geometry" />
        </mxCell>
        <mxCell id="CfD4FoiF6nNvBr-aVgtz-15" value="+ count_point: INT, Not null, Default value 0" style="text;strokeColor=#FFFFFF;fillColor=none;align=left;verticalAlign=top;spacingLeft=4;spacingRight=4;overflow=hidden;rotatable=0;points=[[0,0.5],[1,0.5]];portConstraint=eastwest;fontColor=#FFFFFF;" parent="CfD4FoiF6nNvBr-aVgtz-12" vertex="1">
          <mxGeometry y="78" width="250" height="26" as="geometry" />
        </mxCell>
        <mxCell id="CfD4FoiF6nNvBr-aVgtz-39" value="+ id_quest: Foreign Key" style="text;strokeColor=#FFFFFF;fillColor=none;align=left;verticalAlign=top;spacingLeft=4;spacingRight=4;overflow=hidden;rotatable=0;points=[[0,0.5],[1,0.5]];portConstraint=eastwest;fontColor=#FFFFFF;" parent="CfD4FoiF6nNvBr-aVgtz-12" vertex="1">
          <mxGeometry y="104" width="250" height="26" as="geometry" />
        </mxCell>
        <mxCell id="CfD4FoiF6nNvBr-aVgtz-40" value="+ create_date: DATETIME, Not null" style="text;strokeColor=#FFFFFF;fillColor=none;align=left;verticalAlign=top;spacingLeft=4;spacingRight=4;overflow=hidden;rotatable=0;points=[[0,0.5],[1,0.5]];portConstraint=eastwest;fontColor=#FFFFFF;" parent="CfD4FoiF6nNvBr-aVgtz-12" vertex="1">
          <mxGeometry y="130" width="250" height="26" as="geometry" />
        </mxCell>
        <mxCell id="CfD4FoiF6nNvBr-aVgtz-41" value="+ update_date: DATETIME, Not null" style="text;strokeColor=#FFFFFF;fillColor=none;align=left;verticalAlign=top;spacingLeft=4;spacingRight=4;overflow=hidden;rotatable=0;points=[[0,0.5],[1,0.5]];portConstraint=eastwest;fontColor=#FFFFFF;" parent="CfD4FoiF6nNvBr-aVgtz-12" vertex="1">
          <mxGeometry y="156" width="250" height="26" as="geometry" />
        </mxCell>
        <mxCell id="CfD4FoiF6nNvBr-aVgtz-16" value="Result_testing" style="swimlane;fontStyle=0;childLayout=stackLayout;horizontal=1;startSize=26;fillColor=none;horizontalStack=0;resizeParent=1;resizeParentMax=0;resizeLast=0;collapsible=1;marginBottom=0;strokeColor=#FFFFFF;fontColor=#FFFFFF;" parent="WIyWlLk6GJQsqaUBKTNV-1" vertex="1">
          <mxGeometry x="273" y="246" width="207" height="208" as="geometry" />
        </mxCell>
        <mxCell id="CfD4FoiF6nNvBr-aVgtz-17" value="+ id: INT, Primary Key, Autoincrement" style="text;strokeColor=#FFFFFF;fillColor=none;align=left;verticalAlign=top;spacingLeft=4;spacingRight=4;overflow=hidden;rotatable=0;points=[[0,0.5],[1,0.5]];portConstraint=eastwest;fontColor=#FFFFFF;" parent="CfD4FoiF6nNvBr-aVgtz-16" vertex="1">
          <mxGeometry y="26" width="207" height="26" as="geometry" />
        </mxCell>
        <mxCell id="CfD4FoiF6nNvBr-aVgtz-18" value="+ id_test: Foreign Key" style="text;strokeColor=#FFFFFF;fillColor=none;align=left;verticalAlign=top;spacingLeft=4;spacingRight=4;overflow=hidden;rotatable=0;points=[[0,0.5],[1,0.5]];portConstraint=eastwest;fontColor=#FFFFFF;" parent="CfD4FoiF6nNvBr-aVgtz-16" vertex="1">
          <mxGeometry y="52" width="207" height="26" as="geometry" />
        </mxCell>
        <mxCell id="CfD4FoiF6nNvBr-aVgtz-42" value="+ id_quest: Foreign Key" style="text;strokeColor=#FFFFFF;fillColor=none;align=left;verticalAlign=top;spacingLeft=4;spacingRight=4;overflow=hidden;rotatable=0;points=[[0,0.5],[1,0.5]];portConstraint=eastwest;fontColor=#FFFFFF;" parent="CfD4FoiF6nNvBr-aVgtz-16" vertex="1">
          <mxGeometry y="78" width="207" height="26" as="geometry" />
        </mxCell>
        <mxCell id="CfD4FoiF6nNvBr-aVgtz-43" value="+ id_response: Foreign Key" style="text;strokeColor=#FFFFFF;fillColor=none;align=left;verticalAlign=top;spacingLeft=4;spacingRight=4;overflow=hidden;rotatable=0;points=[[0,0.5],[1,0.5]];portConstraint=eastwest;fontColor=#FFFFFF;" parent="CfD4FoiF6nNvBr-aVgtz-16" vertex="1">
          <mxGeometry y="104" width="207" height="26" as="geometry" />
        </mxCell>
        <mxCell id="CfD4FoiF6nNvBr-aVgtz-44" value="+ id_user: Foreign Key" style="text;strokeColor=#FFFFFF;fillColor=none;align=left;verticalAlign=top;spacingLeft=4;spacingRight=4;overflow=hidden;rotatable=0;points=[[0,0.5],[1,0.5]];portConstraint=eastwest;fontColor=#FFFFFF;" parent="CfD4FoiF6nNvBr-aVgtz-16" vertex="1">
          <mxGeometry y="130" width="207" height="26" as="geometry" />
        </mxCell>
        <mxCell id="CfD4FoiF6nNvBr-aVgtz-45" value="+ create_date: DATETIME, Not null" style="text;strokeColor=#FFFFFF;fillColor=none;align=left;verticalAlign=top;spacingLeft=4;spacingRight=4;overflow=hidden;rotatable=0;points=[[0,0.5],[1,0.5]];portConstraint=eastwest;fontColor=#FFFFFF;" parent="CfD4FoiF6nNvBr-aVgtz-16" vertex="1">
          <mxGeometry y="156" width="207" height="26" as="geometry" />
        </mxCell>
        <mxCell id="CfD4FoiF6nNvBr-aVgtz-46" value="+ update_date: DATETIME, Not null" style="text;strokeColor=#FFFFFF;fillColor=none;align=left;verticalAlign=top;spacingLeft=4;spacingRight=4;overflow=hidden;rotatable=0;points=[[0,0.5],[1,0.5]];portConstraint=eastwest;fontColor=#FFFFFF;" parent="CfD4FoiF6nNvBr-aVgtz-16" vertex="1">
          <mxGeometry y="182" width="207" height="26" as="geometry" />
        </mxCell>
        <mxCell id="CfD4FoiF6nNvBr-aVgtz-20" value="Test" style="swimlane;fontStyle=0;childLayout=stackLayout;horizontal=1;startSize=26;fillColor=none;horizontalStack=0;resizeParent=1;resizeParentMax=0;resizeLast=0;collapsible=1;marginBottom=0;strokeColor=#FFFFFF;fontColor=#FFFFFF;" parent="WIyWlLk6GJQsqaUBKTNV-1" vertex="1">
          <mxGeometry x="273" y="40" width="207" height="182" as="geometry" />
        </mxCell>
        <mxCell id="CfD4FoiF6nNvBr-aVgtz-21" value="+ id: INT, Primary Key, Autoincrement" style="text;strokeColor=#FFFFFF;fillColor=none;align=left;verticalAlign=top;spacingLeft=4;spacingRight=4;overflow=hidden;rotatable=0;points=[[0,0.5],[1,0.5]];portConstraint=eastwest;fontColor=#FFFFFF;" parent="CfD4FoiF6nNvBr-aVgtz-20" vertex="1">
          <mxGeometry y="26" width="207" height="26" as="geometry" />
        </mxCell>
        <mxCell id="CfD4FoiF6nNvBr-aVgtz-22" value="+ name: VARCHAR(1000), Not null" style="text;strokeColor=#FFFFFF;fillColor=none;align=left;verticalAlign=top;spacingLeft=4;spacingRight=4;overflow=hidden;rotatable=0;points=[[0,0.5],[1,0.5]];portConstraint=eastwest;fontColor=#FFFFFF;" parent="CfD4FoiF6nNvBr-aVgtz-20" vertex="1">
          <mxGeometry y="52" width="207" height="26" as="geometry" />
        </mxCell>
        <mxCell id="CfD4FoiF6nNvBr-aVgtz-23" value="+ description: VARCHAR(), Is null" style="text;strokeColor=#FFFFFF;fillColor=none;align=left;verticalAlign=top;spacingLeft=4;spacingRight=4;overflow=hidden;rotatable=0;points=[[0,0.5],[1,0.5]];portConstraint=eastwest;fontColor=#FFFFFF;" parent="CfD4FoiF6nNvBr-aVgtz-20" vertex="1">
          <mxGeometry y="78" width="207" height="26" as="geometry" />
        </mxCell>
        <mxCell id="CfD4FoiF6nNvBr-aVgtz-33" value="+ id_author: Foreign Key" style="text;strokeColor=#FFFFFF;fillColor=none;align=left;verticalAlign=top;spacingLeft=4;spacingRight=4;overflow=hidden;rotatable=0;points=[[0,0.5],[1,0.5]];portConstraint=eastwest;fontColor=#FFFFFF;" parent="CfD4FoiF6nNvBr-aVgtz-20" vertex="1">
          <mxGeometry y="104" width="207" height="26" as="geometry" />
        </mxCell>
        <mxCell id="CfD4FoiF6nNvBr-aVgtz-34" value="+ create_date: DATETIME, Not null" style="text;strokeColor=#FFFFFF;fillColor=none;align=left;verticalAlign=top;spacingLeft=4;spacingRight=4;overflow=hidden;rotatable=0;points=[[0,0.5],[1,0.5]];portConstraint=eastwest;fontColor=#FFFFFF;" parent="CfD4FoiF6nNvBr-aVgtz-20" vertex="1">
          <mxGeometry y="130" width="207" height="26" as="geometry" />
        </mxCell>
        <mxCell id="CfD4FoiF6nNvBr-aVgtz-35" value="+ update_date: DATETIME, Not null" style="text;strokeColor=#FFFFFF;fillColor=none;align=left;verticalAlign=top;spacingLeft=4;spacingRight=4;overflow=hidden;rotatable=0;points=[[0,0.5],[1,0.5]];portConstraint=eastwest;fontColor=#FFFFFF;" parent="CfD4FoiF6nNvBr-aVgtz-20" vertex="1">
          <mxGeometry y="156" width="207" height="26" as="geometry" />
        </mxCell>
        <mxCell id="CfD4FoiF6nNvBr-aVgtz-28" value="UserGroup" style="swimlane;fontStyle=0;childLayout=stackLayout;horizontal=1;startSize=26;fillColor=none;horizontalStack=0;resizeParent=1;resizeParentMax=0;resizeLast=0;collapsible=1;marginBottom=0;strokeColor=#FFFFFF;fontColor=#FFFFFF;" parent="WIyWlLk6GJQsqaUBKTNV-1" vertex="1">
          <mxGeometry x="10" y="222" width="230" height="130" as="geometry" />
        </mxCell>
        <mxCell id="CfD4FoiF6nNvBr-aVgtz-29" value="+ id: INT, Primary Key, Autoincrement" style="text;strokeColor=#FFFFFF;fillColor=none;align=left;verticalAlign=top;spacingLeft=4;spacingRight=4;overflow=hidden;rotatable=0;points=[[0,0.5],[1,0.5]];portConstraint=eastwest;fontColor=#FFFFFF;" parent="CfD4FoiF6nNvBr-aVgtz-28" vertex="1">
          <mxGeometry y="26" width="230" height="26" as="geometry" />
        </mxCell>
        <mxCell id="CfD4FoiF6nNvBr-aVgtz-30" value="+ id_user: Foreign Key" style="text;strokeColor=#FFFFFF;fillColor=none;align=left;verticalAlign=top;spacingLeft=4;spacingRight=4;overflow=hidden;rotatable=0;points=[[0,0.5],[1,0.5]];portConstraint=eastwest;fontColor=#FFFFFF;" parent="CfD4FoiF6nNvBr-aVgtz-28" vertex="1">
          <mxGeometry y="52" width="230" height="26" as="geometry" />
        </mxCell>
        <mxCell id="CfD4FoiF6nNvBr-aVgtz-31" value="+ id_group: Foreign Key" style="text;strokeColor=#FFFFFF;fillColor=none;align=left;verticalAlign=top;spacingLeft=4;spacingRight=4;overflow=hidden;rotatable=0;points=[[0,0.5],[1,0.5]];portConstraint=eastwest;fontColor=#FFFFFF;" parent="CfD4FoiF6nNvBr-aVgtz-28" vertex="1">
          <mxGeometry y="78" width="230" height="26" as="geometry" />
        </mxCell>
        <mxCell id="CfD4FoiF6nNvBr-aVgtz-32" value="+ create_date: DATETIME, Not null" style="text;strokeColor=#FFFFFF;fillColor=none;align=left;verticalAlign=top;spacingLeft=4;spacingRight=4;overflow=hidden;rotatable=0;points=[[0,0.5],[1,0.5]];portConstraint=eastwest;fontColor=#FFFFFF;" parent="CfD4FoiF6nNvBr-aVgtz-28" vertex="1">
          <mxGeometry y="104" width="230" height="26" as="geometry" />
        </mxCell>
        <mxCell id="CfD4FoiF6nNvBr-aVgtz-47" value="" style="edgeStyle=orthogonalEdgeStyle;fontSize=12;html=1;endArrow=ERoneToMany;startArrow=ERone;rounded=0;startFill=0;endFill=0;entryX=0;entryY=0.5;entryDx=0;entryDy=0;exitX=0;exitY=0.5;exitDx=0;exitDy=0;strokeColor=#FFFFFF;fontColor=#FFFFFF;" parent="WIyWlLk6GJQsqaUBKTNV-1" source="CfD4FoiF6nNvBr-aVgtz-5" target="CfD4FoiF6nNvBr-aVgtz-31" edge="1">
          <mxGeometry width="100" height="100" relative="1" as="geometry">
            <mxPoint x="-50" y="470" as="sourcePoint" />
            <mxPoint x="-160" y="460" as="targetPoint" />
            <Array as="points">
              <mxPoint x="-10" y="419" />
              <mxPoint x="-10" y="313" />
            </Array>
          </mxGeometry>
        </mxCell>
        <mxCell id="CfD4FoiF6nNvBr-aVgtz-48" value="" style="edgeStyle=orthogonalEdgeStyle;fontSize=12;html=1;endArrow=ERoneToMany;startArrow=ERone;rounded=0;startFill=0;endFill=0;entryX=0;entryY=0.5;entryDx=0;entryDy=0;exitX=0;exitY=0.5;exitDx=0;exitDy=0;strokeColor=#FFFFFF;fontColor=#FFFFFF;" parent="WIyWlLk6GJQsqaUBKTNV-1" source="CfD4FoiF6nNvBr-aVgtz-1" target="CfD4FoiF6nNvBr-aVgtz-30" edge="1">
          <mxGeometry width="100" height="100" relative="1" as="geometry">
            <mxPoint x="-40" y="352" as="sourcePoint" />
            <mxPoint x="-40" y="246" as="targetPoint" />
            <Array as="points">
              <mxPoint x="-10" y="79" />
              <mxPoint x="-10" y="287" />
            </Array>
          </mxGeometry>
        </mxCell>
        <mxCell id="CfD4FoiF6nNvBr-aVgtz-49" value="" style="edgeStyle=orthogonalEdgeStyle;fontSize=12;html=1;endArrow=ERoneToMany;startArrow=ERone;rounded=0;startFill=0;endFill=0;entryX=0;entryY=0.5;entryDx=0;entryDy=0;exitX=1;exitY=0.5;exitDx=0;exitDy=0;strokeColor=#FFFFFF;fontColor=#FFFFFF;" parent="WIyWlLk6GJQsqaUBKTNV-1" source="CfD4FoiF6nNvBr-aVgtz-1" target="CfD4FoiF6nNvBr-aVgtz-33" edge="1">
          <mxGeometry width="100" height="100" relative="1" as="geometry">
            <mxPoint x="320" y="450.0000000000001" as="sourcePoint" />
            <mxPoint x="320" y="658" as="targetPoint" />
            <Array as="points">
              <mxPoint x="260" y="79" />
              <mxPoint x="260" y="157" />
            </Array>
          </mxGeometry>
        </mxCell>
        <mxCell id="CfD4FoiF6nNvBr-aVgtz-50" value="" style="edgeStyle=orthogonalEdgeStyle;fontSize=12;html=1;endArrow=ERoneToMany;startArrow=ERone;rounded=0;startFill=0;endFill=0;exitX=1;exitY=0.5;exitDx=0;exitDy=0;entryX=0;entryY=0.5;entryDx=0;entryDy=0;strokeColor=#FFFFFF;fontColor=#FFFFFF;" parent="WIyWlLk6GJQsqaUBKTNV-1" source="CfD4FoiF6nNvBr-aVgtz-21" target="CfD4FoiF6nNvBr-aVgtz-36" edge="1">
          <mxGeometry width="100" height="100" relative="1" as="geometry">
            <mxPoint x="500" y="150.0000000000001" as="sourcePoint" />
            <mxPoint x="530" y="240" as="targetPoint" />
            <Array as="points">
              <mxPoint x="500" y="79" />
              <mxPoint x="500" y="157" />
            </Array>
          </mxGeometry>
        </mxCell>
        <mxCell id="CfD4FoiF6nNvBr-aVgtz-51" value="" style="edgeStyle=orthogonalEdgeStyle;fontSize=12;html=1;endArrow=ERoneToMany;startArrow=ERone;rounded=0;startFill=0;endFill=0;exitX=1;exitY=0.5;exitDx=0;exitDy=0;entryX=1;entryY=0.5;entryDx=0;entryDy=0;strokeColor=#FFFFFF;fontColor=#FFFFFF;" parent="WIyWlLk6GJQsqaUBKTNV-1" source="CfD4FoiF6nNvBr-aVgtz-9" target="CfD4FoiF6nNvBr-aVgtz-39" edge="1">
          <mxGeometry width="100" height="100" relative="1" as="geometry">
            <mxPoint x="790" y="79.00000000000011" as="sourcePoint" />
            <mxPoint x="830" y="157" as="targetPoint" />
            <Array as="points">
              <mxPoint x="790" y="79" />
              <mxPoint x="790" y="363" />
            </Array>
          </mxGeometry>
        </mxCell>
        <mxCell id="CfD4FoiF6nNvBr-aVgtz-52" value="" style="edgeStyle=orthogonalEdgeStyle;fontSize=12;html=1;endArrow=ERoneToMany;startArrow=ERone;rounded=0;startFill=0;endFill=0;exitX=1;exitY=0.5;exitDx=0;exitDy=0;entryX=0;entryY=0.5;entryDx=0;entryDy=0;strokeColor=#FFFFFF;fontColor=#FFFFFF;" parent="WIyWlLk6GJQsqaUBKTNV-1" source="CfD4FoiF6nNvBr-aVgtz-1" target="CfD4FoiF6nNvBr-aVgtz-44" edge="1">
          <mxGeometry width="100" height="100" relative="1" as="geometry">
            <mxPoint x="500" y="490.0000000000001" as="sourcePoint" />
            <mxPoint x="540" y="568" as="targetPoint" />
            <Array as="points">
              <mxPoint x="250" y="79" />
              <mxPoint x="250" y="389" />
            </Array>
          </mxGeometry>
        </mxCell>
        <mxCell id="CfD4FoiF6nNvBr-aVgtz-53" value="" style="edgeStyle=orthogonalEdgeStyle;fontSize=12;html=1;endArrow=ERoneToMany;startArrow=ERone;rounded=0;startFill=0;endFill=0;exitX=1;exitY=0.5;exitDx=0;exitDy=0;entryX=1;entryY=0.5;entryDx=0;entryDy=0;strokeColor=#FFFFFF;fontColor=#FFFFFF;" parent="WIyWlLk6GJQsqaUBKTNV-1" source="CfD4FoiF6nNvBr-aVgtz-21" target="CfD4FoiF6nNvBr-aVgtz-18" edge="1">
          <mxGeometry width="100" height="100" relative="1" as="geometry">
            <mxPoint x="480" y="168.0000000000001" as="sourcePoint" />
            <mxPoint x="520" y="246" as="targetPoint" />
            <Array as="points">
              <mxPoint x="490" y="79" />
              <mxPoint x="490" y="311" />
            </Array>
          </mxGeometry>
        </mxCell>
        <mxCell id="CfD4FoiF6nNvBr-aVgtz-54" value="" style="edgeStyle=orthogonalEdgeStyle;fontSize=12;html=1;endArrow=ERoneToMany;startArrow=ERone;rounded=0;startFill=0;endFill=0;exitX=1;exitY=0.5;exitDx=0;exitDy=0;entryX=1;entryY=0.5;entryDx=0;entryDy=0;strokeColor=#FFFFFF;fontColor=#FFFFFF;" parent="WIyWlLk6GJQsqaUBKTNV-1" source="CfD4FoiF6nNvBr-aVgtz-9" target="CfD4FoiF6nNvBr-aVgtz-42" edge="1">
          <mxGeometry width="100" height="100" relative="1" as="geometry">
            <mxPoint x="540" y="480.0000000000001" as="sourcePoint" />
            <mxPoint x="580" y="558" as="targetPoint" />
            <Array as="points">
              <mxPoint x="780" y="79" />
              <mxPoint x="780" y="230" />
              <mxPoint x="500" y="230" />
              <mxPoint x="500" y="337" />
            </Array>
          </mxGeometry>
        </mxCell>
        <mxCell id="CfD4FoiF6nNvBr-aVgtz-55" value="" style="edgeStyle=orthogonalEdgeStyle;fontSize=12;html=1;endArrow=ERoneToMany;startArrow=ERone;rounded=0;startFill=0;endFill=0;exitX=0;exitY=0.5;exitDx=0;exitDy=0;entryX=1;entryY=0.5;entryDx=0;entryDy=0;strokeColor=#FFFFFF;fontColor=#FFFFFF;" parent="WIyWlLk6GJQsqaUBKTNV-1" source="CfD4FoiF6nNvBr-aVgtz-13" target="CfD4FoiF6nNvBr-aVgtz-43" edge="1">
          <mxGeometry width="100" height="100" relative="1" as="geometry">
            <mxPoint x="480" y="500.0000000000001" as="sourcePoint" />
            <mxPoint x="520" y="578" as="targetPoint" />
            <Array as="points">
              <mxPoint x="510" y="285" />
              <mxPoint x="510" y="363" />
            </Array>
          </mxGeometry>
        </mxCell>
      </root>
    </mxGraphModel>
  </diagram>
</mxfile>
